<?xml version="1.0" encoding="utf-8"?>
<!-- Generator: Adobe Illustrator 18.0.0, SVG Export Plug-In . SVG Version: 6.00 Build 0)  -->
<!DOCTYPE svg PUBLIC "-//W3C//DTD SVG 1.1//EN" "http://www.w3.org/Graphics/SVG/1.1/DTD/svg11.dtd">
<svg version="1.1" id="Layer_1" xmlns="http://www.w3.org/2000/svg" xmlns:xlink="http://www.w3.org/1999/xlink" x="0px" y="0px"
	 width="228px" height="42px" viewBox="0 0 228 42" style="enable-background:new 0 0 228 42;" xml:space="preserve">
<style type="text/css">
	.st0{fill:#26A1DB;}
	.st1{fill:#FFFFFF;}
	.st2{fill:#005E8E;}
</style>
<g>
	<g>
		<g>
			<path class="st0" d="M206.2,10.2c0,5.6-4.6,10.2-10.2,10.2c-5.6,0-10.2-4.6-10.2-10.2C185.8,4.6,190.4,0,196,0
				C201.7,0,206.2,4.6,206.2,10.2"/>
			<path class="st1" d="M200,13.1c-0.9,1.1-2.3,1.6-3.6,1.6c-2.8,0-4.5-2-4.5-4.5c0-2.7,1.9-4.5,4.5-4.5c1,0,2.2,0.3,2.9,1.1
				c0.2,0.2,0.3,0.3,0.3,0.5c0,0.4-0.3,0.7-0.7,0.7c-0.2,0-0.4-0.1-0.5-0.2c-0.5-0.4-1-0.7-1.9-0.7c-1.7,0-2.9,1.3-2.9,3.1
				c0,1.8,1.1,3.1,2.9,3.1c0.9,0,1.7-0.3,2.2-0.8v-1.4h-1.7c-0.4,0-0.7-0.3-0.7-0.7c0-0.4,0.3-0.7,0.7-0.7h2.5
				c0.5,0,0.8,0.4,0.8,0.8v2.1C200.2,12.8,200.1,13,200,13.1z"/>
		</g>
		<g>
			<path class="st0" d="M228,31.8c0,5.6-4.6,10.2-10.2,10.2c-5.6,0-10.2-4.6-10.2-10.2c0-5.6,4.6-10.2,10.2-10.2
				C223.4,21.6,228,26.2,228,31.8"/>
			<path class="st1" d="M221.7,34.8c-0.9,1.1-2.3,1.6-3.6,1.6c-2.8,0-4.5-2-4.5-4.5c0-2.7,1.9-4.5,4.5-4.5c1,0,2.2,0.3,2.9,1.1
				c0.2,0.2,0.3,0.3,0.3,0.5c0,0.4-0.3,0.7-0.7,0.7c-0.2,0-0.4-0.1-0.5-0.2c-0.5-0.4-1-0.7-1.9-0.7c-1.7,0-2.9,1.3-2.9,3
				c0,1.8,1.1,3.1,2.9,3.1c0.9,0,1.7-0.3,2.2-0.8v-1.4h-1.7c-0.4,0-0.7-0.3-0.7-0.7c0-0.4,0.3-0.7,0.7-0.7h2.5
				c0.5,0,0.8,0.4,0.8,0.8v2.1C221.9,34.5,221.8,34.6,221.7,34.8z"/>
		</g>
		<g>
			<path class="st2" d="M228,10.2c0,5.6-4.6,10.2-10.2,10.2c-5.6,0-10.2-4.6-10.2-10.2c0-5.6,4.6-10.2,10.2-10.2
				C223.4,0.1,228,4.6,228,10.2"/>
			<path class="st1" d="M221.4,14.6c-0.4,0-0.8-0.3-0.8-0.7V9.5l-2.2,4.7c-0.1,0.3-0.4,0.4-0.7,0.4c-0.3,0-0.5-0.1-0.7-0.4l-2.3-4.7
				v4.4c0,0.4-0.3,0.8-0.8,0.8c-0.4,0-0.8-0.4-0.8-0.8V6.4c0-0.4,0.3-0.7,0.8-0.7c0.4,0,0.6,0.2,0.7,0.5l3,6.2l3-6.2
				c0.1-0.3,0.4-0.5,0.7-0.5c0.5,0,0.8,0.3,0.8,0.8v7.5C222.2,14.3,221.9,14.6,221.4,14.6z"/>
		</g>
	</g>
	<g>
		<path class="st2" d="M8.1,34.7c-0.9,1.1-2.3,1.6-3.6,1.6c-2.8,0-4.5-2-4.5-4.5c0-2.6,1.9-4.5,4.5-4.5c1,0,2.2,0.3,2.9,1.1
			c0.2,0.2,0.2,0.3,0.2,0.5c0,0.4-0.3,0.7-0.7,0.7c-0.2,0-0.4-0.1-0.5-0.2c-0.5-0.4-1-0.7-1.9-0.7c-1.7,0-2.8,1.3-2.8,3
			c0,1.8,1,3.1,2.9,3.1c0.9,0,1.7-0.3,2.2-0.8v-1.3H5c-0.4,0-0.7-0.3-0.7-0.7c0-0.4,0.3-0.7,0.7-0.7h2.5c0.5,0,0.8,0.4,0.8,0.8v2.1
			C8.2,34.4,8.2,34.6,8.1,34.7z"/>
		<path class="st2" d="M16.7,35.5c0,0.4-0.3,0.8-0.8,0.8c-0.4,0-0.6-0.2-0.7-0.4l-1.5-3.1H11v2.8c0,0.4-0.4,0.8-0.8,0.8
			c-0.4,0-0.8-0.4-0.8-0.8v-7.2c0-0.4,0.4-0.8,0.8-0.8h3.4c2.2,0,3.1,1.1,3.1,2.6c0,1-0.4,1.9-1.4,2.3l1.4,2.7
			C16.7,35.2,16.7,35.3,16.7,35.5z M13.8,28.9H11v2.4h2.8c0.9,0,1.3-0.6,1.3-1.2C15.1,29.5,14.7,28.9,13.8,28.9z"/>
		<path class="st2" d="M23.6,36.1h-4.9c-0.4,0-0.8-0.4-0.8-0.8v-7.1c0-0.4,0.4-0.8,0.8-0.8h4.7c0.4,0,0.8,0.3,0.8,0.7
			c0,0.4-0.3,0.7-0.8,0.7h-3.9V31h2.2c0.4,0,0.7,0.3,0.7,0.7c0,0.4-0.3,0.7-0.7,0.7h-2.2v2.2h4.1c0.4,0,0.8,0.3,0.8,0.7
			C24.4,35.8,24.1,36.1,23.6,36.1z"/>
		<path class="st2" d="M31.3,36.1h-4.9c-0.4,0-0.8-0.4-0.8-0.8v-7.1c0-0.4,0.4-0.8,0.8-0.8h4.7c0.4,0,0.8,0.3,0.8,0.7
			c0,0.4-0.3,0.7-0.8,0.7h-3.9V31h2.2c0.4,0,0.7,0.3,0.7,0.7c0,0.4-0.3,0.7-0.7,0.7h-2.2v2.2h4.1c0.4,0,0.8,0.3,0.8,0.7
			C32.1,35.8,31.7,36.1,31.3,36.1z"/>
		<path class="st2" d="M39.8,36.3c-0.3,0-0.4-0.1-0.6-0.3l-4.5-5.7v5.2c0,0.4-0.3,0.7-0.8,0.7c-0.4,0-0.7-0.3-0.7-0.7v-7.4
			c0-0.4,0.3-0.8,0.8-0.8c0.2,0,0.4,0.1,0.5,0.3l4.5,5.7v-5.2c0-0.4,0.3-0.8,0.7-0.8c0.4,0,0.8,0.4,0.8,0.8v7.4
			C40.6,35.9,40.3,36.3,39.8,36.3z"/>
		<path class="st2" d="M50.1,33.4l2-5.6c0.1-0.3,0.3-0.5,0.7-0.5c0.5,0,0.7,0.4,0.7,0.7c0,0.1,0,0.1,0,0.2l-2.7,7.4
			c-0.1,0.3-0.3,0.5-0.7,0.5c-0.3,0-0.6-0.2-0.7-0.5l-1.9-5.6l-1.9,5.6c-0.1,0.3-0.4,0.5-0.7,0.5c-0.4,0-0.6-0.2-0.7-0.5l-2.7-7.4
			c0-0.1,0-0.2,0-0.2c0-0.4,0.2-0.7,0.7-0.7c0.4,0,0.6,0.2,0.7,0.5l2,5.6l1.9-5.6c0.1-0.3,0.3-0.5,0.7-0.5c0.4,0,0.6,0.2,0.7,0.5
			L50.1,33.4z"/>
		<path class="st2" d="M55.5,36.3c-0.4,0-0.8-0.4-0.8-0.8v-7.3c0-0.4,0.4-0.8,0.8-0.8c0.4,0,0.8,0.4,0.8,0.8v7.3
			C56.3,35.9,56,36.3,55.5,36.3z"/>
		<path class="st2" d="M64,34.1c0.2-0.1,0.3-0.2,0.5-0.2c0.4,0,0.7,0.3,0.7,0.7c0,0.2-0.1,0.4-0.3,0.5c-0.7,0.8-1.9,1.1-2.9,1.1
			c-2.6,0-4.5-1.8-4.5-4.5c0-2.7,1.9-4.5,4.5-4.5c1,0,2.2,0.3,2.9,1.1c0.2,0.2,0.3,0.3,0.3,0.5c0,0.4-0.3,0.7-0.7,0.7
			c-0.2,0-0.4-0.1-0.5-0.2c-0.5-0.4-1-0.7-1.9-0.7c-1.7,0-2.8,1.3-2.8,3c0,1.7,1.1,3,2.8,3C62.9,34.8,63.5,34.5,64,34.1z"/>
		<path class="st2" d="M73,36.3c-0.4,0-0.8-0.4-0.8-0.8v-3H68v3c0,0.4-0.3,0.8-0.8,0.8c-0.4,0-0.8-0.4-0.8-0.8v-7.3
			c0-0.4,0.4-0.8,0.8-0.8c0.4,0,0.8,0.4,0.8,0.8v2.8h4.1v-2.8c0-0.4,0.4-0.8,0.8-0.8c0.4,0,0.8,0.4,0.8,0.8v7.3
			C73.8,35.9,73.4,36.3,73,36.3z"/>
		<path class="st2" d="M87.2,36.3c-0.4,0-0.7-0.3-0.7-0.7v-4.3l-2.2,4.7c-0.1,0.3-0.4,0.4-0.7,0.4c-0.3,0-0.5-0.1-0.7-0.4l-2.3-4.7
			v4.3c0,0.4-0.3,0.8-0.8,0.8c-0.4,0-0.7-0.4-0.7-0.8v-7.4c0-0.4,0.3-0.7,0.7-0.7c0.4,0,0.6,0.2,0.7,0.5l3,6.1l2.9-6.1
			c0.1-0.3,0.4-0.5,0.7-0.5c0.5,0,0.8,0.3,0.8,0.8v7.4C87.9,35.9,87.6,36.3,87.2,36.3z"/>
		<path class="st2" d="M95,34.2h-3.9l-0.7,1.6c-0.1,0.3-0.3,0.4-0.7,0.4c-0.5,0-0.8-0.4-0.8-0.7c0-0.1,0-0.2,0.1-0.3l3.4-7.4
			c0.1-0.3,0.3-0.4,0.7-0.4c0.3,0,0.6,0.1,0.7,0.4l3.4,7.4c0.1,0.1,0.1,0.2,0.1,0.3c0,0.4-0.3,0.7-0.8,0.7c-0.3,0-0.5-0.2-0.7-0.4
			L95,34.2z M93,29.5l-1.4,3.3h2.7L93,29.5z"/>
		<path class="st2" d="M105.4,35.5c0,0.4-0.3,0.8-0.8,0.8c-0.4,0-0.6-0.2-0.7-0.4l-1.5-3.1h-2.6v2.8c0,0.4-0.4,0.8-0.8,0.8
			c-0.4,0-0.8-0.4-0.8-0.8v-7.2c0-0.4,0.4-0.8,0.8-0.8h3.4c2.2,0,3.1,1.1,3.1,2.6c0,1-0.4,1.9-1.4,2.3l1.4,2.7
			C105.3,35.2,105.4,35.3,105.4,35.5z M102.5,28.9h-2.8v2.4h2.8c0.9,0,1.3-0.6,1.3-1.2C103.7,29.5,103.3,28.9,102.5,28.9z"/>
		<path class="st2" d="M107.6,36.3c-0.4,0-0.8-0.4-0.8-0.8v-7.3c0-0.4,0.4-0.8,0.8-0.8c0.4,0,0.8,0.4,0.8,0.8v3.2l3.9-3.8
			c0.1-0.1,0.3-0.2,0.5-0.2c0.4,0,0.8,0.3,0.8,0.7c0,0.2-0.1,0.4-0.2,0.6l-2.3,2.2l2.7,4.2c0.1,0.1,0.1,0.3,0.1,0.4
			c0,0.4-0.2,0.7-0.7,0.7c-0.3,0-0.5-0.1-0.7-0.3l-2.5-4l-1.6,1.6v2C108.4,35.9,108.1,36.3,107.6,36.3z"/>
		<path class="st2" d="M121,36.1h-4.9c-0.4,0-0.8-0.4-0.8-0.8v-7.1c0-0.4,0.4-0.8,0.8-0.8h4.7c0.4,0,0.8,0.3,0.8,0.7
			c0,0.4-0.3,0.7-0.8,0.7h-3.9V31h2.2c0.4,0,0.7,0.3,0.7,0.7c0,0.4-0.3,0.7-0.7,0.7h-2.2v2.2h4.1c0.4,0,0.8,0.3,0.8,0.7
			C121.7,35.8,121.4,36.1,121,36.1z"/>
		<path class="st2" d="M129.3,29H127v6.5c0,0.4-0.4,0.8-0.8,0.8c-0.4,0-0.8-0.4-0.8-0.8V29h-2.3c-0.4,0-0.8-0.3-0.8-0.7
			c0-0.4,0.3-0.8,0.8-0.8h6.1c0.4,0,0.8,0.3,0.8,0.8C130,28.6,129.7,29,129.3,29z"/>
		<path class="st2" d="M132.2,36.3c-0.4,0-0.8-0.4-0.8-0.8v-7.3c0-0.4,0.4-0.8,0.8-0.8c0.4,0,0.8,0.4,0.8,0.8v7.3
			C133,35.9,132.6,36.3,132.2,36.3z"/>
		<path class="st2" d="M141.5,36.3c-0.2,0-0.4-0.1-0.6-0.3l-4.5-5.7v5.2c0,0.4-0.3,0.7-0.8,0.7c-0.4,0-0.7-0.3-0.7-0.7v-7.4
			c0-0.4,0.3-0.8,0.8-0.8c0.2,0,0.4,0.1,0.5,0.3l4.5,5.7v-5.2c0-0.4,0.3-0.8,0.7-0.8c0.4,0,0.8,0.4,0.8,0.8v7.4
			C142.2,35.9,141.9,36.3,141.5,36.3z"/>
		<path class="st2" d="M151.6,34.7c-0.9,1.1-2.3,1.6-3.6,1.6c-2.8,0-4.5-2-4.5-4.5c0-2.6,1.9-4.5,4.5-4.5c1,0,2.2,0.3,2.9,1.1
			c0.2,0.2,0.2,0.3,0.2,0.5c0,0.4-0.3,0.7-0.7,0.7c-0.2,0-0.4-0.1-0.5-0.2c-0.5-0.4-1-0.7-1.9-0.7c-1.7,0-2.8,1.3-2.8,3
			c0,1.8,1,3.1,2.9,3.1c0.9,0,1.7-0.3,2.2-0.8v-1.3h-1.7c-0.4,0-0.7-0.3-0.7-0.7c0-0.4,0.3-0.7,0.7-0.7h2.5c0.5,0,0.8,0.4,0.8,0.8
			v2.1C151.8,34.4,151.7,34.6,151.6,34.7z"/>
		<path class="st2" d="M164.1,34.7c-0.9,1.1-2.3,1.6-3.6,1.6c-2.8,0-4.5-2-4.5-4.5c0-2.6,1.9-4.5,4.5-4.5c1,0,2.2,0.3,2.9,1.1
			c0.2,0.2,0.2,0.3,0.2,0.5c0,0.4-0.3,0.7-0.7,0.7c-0.2,0-0.4-0.1-0.5-0.2c-0.5-0.4-1-0.7-1.9-0.7c-1.7,0-2.8,1.3-2.8,3
			c0,1.8,1,3.1,2.9,3.1c0.9,0,1.7-0.3,2.2-0.8v-1.3H161c-0.4,0-0.7-0.3-0.7-0.7c0-0.4,0.3-0.7,0.7-0.7h2.5c0.5,0,0.8,0.4,0.8,0.8
			v2.1C164.2,34.4,164.2,34.6,164.1,34.7z"/>
		<path class="st2" d="M172.9,35.5c0,0.4-0.3,0.8-0.8,0.8c-0.4,0-0.6-0.2-0.7-0.4l-1.5-3.1h-2.6v2.8c0,0.4-0.4,0.8-0.8,0.8
			c-0.4,0-0.8-0.4-0.8-0.8v-7.2c0-0.4,0.4-0.8,0.8-0.8h3.4c2.2,0,3.1,1.1,3.1,2.6c0,1-0.4,1.9-1.4,2.3l1.4,2.7
			C172.8,35.2,172.9,35.3,172.9,35.5z M170,28.9h-2.8v2.4h2.8c0.9,0,1.3-0.6,1.3-1.2C171.3,29.5,170.9,28.9,170,28.9z"/>
		<path class="st2" d="M178.3,36.3c-2.6,0-4.5-2-4.5-4.5c0-2.5,1.9-4.5,4.5-4.5c2.6,0,4.5,2,4.5,4.5
			C182.7,34.3,180.8,36.3,178.3,36.3z M178.3,28.7c-1.8,0-2.9,1.4-2.9,3.1c0,1.7,1.1,3.1,2.9,3.1c1.8,0,2.9-1.4,2.9-3.1
			C181.1,30.1,180,28.7,178.3,28.7z"/>
		<path class="st2" d="M189.7,28.2c0-0.4,0.4-0.8,0.8-0.8c0.4,0,0.8,0.4,0.8,0.8v4.5c0,2.2-1.4,3.7-3.7,3.7c-2.3,0-3.7-1.4-3.7-3.7
			v-4.5c0-0.4,0.4-0.8,0.8-0.8c0.4,0,0.8,0.4,0.8,0.8v4.6c0,1.2,0.7,2.1,2.1,2.1c1.4,0,2.1-0.8,2.1-2.1V28.2z"/>
		<path class="st2" d="M196.5,32.8H194v2.7c0,0.4-0.4,0.8-0.8,0.8c-0.4,0-0.8-0.4-0.8-0.8v-7.2c0-0.4,0.4-0.8,0.8-0.8h3.3
			c2.2,0,3.1,1.2,3.1,2.7C199.6,31.6,198.7,32.8,196.5,32.8z M196.8,28.9H194v2.4h2.7c0.9,0,1.3-0.6,1.3-1.2
			C198,29.6,197.6,28.9,196.8,28.9z"/>
	</g>
</g>
<g>
</g>
<g>
</g>
<g>
</g>
<g>
</g>
<g>
</g>
<g>
</g>
</svg>
