<?xml version="1.0" encoding="utf-8"?>
<!-- Generator: Adobe Illustrator 18.0.0, SVG Export Plug-In . SVG Version: 6.00 Build 0)  -->
<!DOCTYPE svg PUBLIC "-//W3C//DTD SVG 1.1//EN" "http://www.w3.org/Graphics/SVG/1.1/DTD/svg11.dtd">
<svg version="1.1" id="Layer_1" xmlns="http://www.w3.org/2000/svg" xmlns:xlink="http://www.w3.org/1999/xlink" x="0px" y="0px"
	 width="645px" height="645px" viewBox="0 0 645 645" style="enable-background:new 0 0 645 645;" xml:space="preserve">
<style type="text/css">
	.st0{fill:#26A1DB;}
	.st1{fill:#FFFFFF;}
	.st2{fill:#005E8E;}
</style>
<g>
	<g>
		<g>
			<path class="st0" d="M312.5,156.2c0,86.3-70,156.3-156.2,156.3C70,312.5,0,242.5,0,156.2C0,69.9,70,0,156.3,0
				C242.5,0,312.5,69.9,312.5,156.2"/>
			<path class="st1" d="M216.8,201.6c-13.1,16.4-34.9,24.2-55.1,24.2c-43,0-69-31.5-69-69.6c0-40.8,29.4-69.6,68.6-69.6
				c15.7,0,33.5,5.3,45,17.2c2.4,2.4,3.9,5,3.9,8.3c0,6-4.2,11.3-11.1,11.3c-2.8,0-5.4-1.1-8.1-2.9c-7.6-5.8-15.9-11.1-29.7-11.1
				c-26.4,0-43.8,20-43.8,46.8c0,27.4,16.1,48,44.2,48c13.7,0,25.8-4.8,33.7-12.1v-20.7h-26.2c-6.1,0-11.3-4.9-11.3-11.1
				c0-6.5,5.2-11.1,11.3-11.1h37.9c7,0,12.5,5.7,12.5,12.5v32.1C219.7,197.2,218.8,199,216.8,201.6z"/>
		</g>
		<g>
			<path class="st0" d="M644.2,488.8c0,86.3-70,156.2-156.3,156.2c-86.3,0-156.3-69.9-156.3-156.2c0-86.3,70-156.3,156.3-156.3
				C574.2,332.5,644.2,402.4,644.2,488.8"/>
			<path class="st1" d="M548.6,534.1c-13.1,16.4-34.9,24.2-55.1,24.2c-42.9,0-68.9-31.5-68.9-69.6c0-40.8,29.5-69.6,68.6-69.6
				c15.7,0,33.5,5.2,45,17.1c2.4,2.4,3.8,5.1,3.8,8.3c0,6-4.2,11.3-11.1,11.3c-2.8,0-5.4-1-8.1-2.8c-7.6-5.8-15.9-11.1-29.6-11.1
				c-26.4,0-43.8,19.9-43.8,46.8c0,27.4,16.1,48.1,44.1,48.1c13.8,0,25.8-4.9,33.8-12.1v-20.8H501c-6,0-11.3-4.9-11.3-11.1
				c0-6.5,5.3-11.1,11.3-11.1h37.9c7.1,0,12.5,5.7,12.5,12.5v32.1C551.4,529.7,550.6,531.5,548.6,534.1z"/>
		</g>
		<g>
			<path class="st2" d="M645,157.4c0,86.3-69.9,156.3-156.2,156.3c-86.3,0-156.3-70-156.3-156.3c0-86.3,70-156.3,156.3-156.3
				C575.1,1.1,645,71.1,645,157.4"/>
			<path class="st1" d="M544.8,224.2c-6.4,0-11.5-5.2-11.5-11.5v-67.2L499,217.8c-2,4.2-5.6,6.5-10.1,6.5c-4.8,0-7.8-2-10.1-6.5
				l-34.6-72.2v67c0,6.2-5.3,11.7-11.7,11.7c-6.2,0-11.5-5.5-11.5-11.7V98.2c0-6.3,4.8-11.5,11.5-11.5c5.5,0,8.7,3.2,10.9,7.2
				l45.6,94.6l45.2-94.6c2-4.2,5.9-7.2,10.7-7.2c7.3,0,11.7,4.8,11.7,11.7v114.4C556.5,219,551.7,224.2,544.8,224.2z"/>
		</g>
	</g>
</g>
<g>
	<g>
		<path class="st2" d="M25.6,405.8h-7.1v20.3c0,1-0.7,1.9-1.8,1.9c-1.1,0-1.9-0.8-1.9-1.9v-20.3H7.7c-0.9,0-1.7-0.8-1.7-1.7
			c0-1,0.8-1.7,1.7-1.7h17.9c1,0,1.7,0.8,1.7,1.7C27.4,405,26.6,405.8,25.6,405.8z"/>
		<path class="st2" d="M46.9,428c-1.1,0-1.8-0.8-1.8-1.8v-7.6c0-2.7-1.4-4.6-4.3-4.6c-2.8,0-4.5,2.1-4.5,4.7v7.6
			c0,1-0.8,1.8-1.8,1.8c-1.1,0-1.8-0.8-1.8-1.8v-22.3c0-1.1,0.8-1.8,1.8-1.8c1,0,1.8,0.6,1.8,1.8v10c1.1-2.1,3-3.2,5.5-3.2
			c4.4,0,6.9,3.2,6.9,7.7v7.8C48.7,427.1,48,428,46.9,428z"/>
		<path class="st2" d="M71.1,419.4c0,0.6-0.3,1.2-1.4,1.2H58.3c0.2,2.6,2,4.6,5.1,4.6c2,0,3.2-0.7,4.4-1.9c0.3-0.3,0.7-0.6,1.2-0.6
			c0.8,0,1.5,0.6,1.5,1.5c0,0.4-0.2,0.7-0.5,1c-1.4,1.7-4,2.8-6.8,2.8c-5.7,0-8.7-4-8.7-8.7c0-5,3.6-8.7,8.5-8.7
			C68,410.7,71.1,414.6,71.1,419.4z M63.2,413.6c-2.6,0-4.4,1.9-4.7,4.2h9.3C67.5,415.5,65.7,413.6,63.2,413.6z"/>
		<path class="st2" d="M91,417.5v-13.6c0-1,0.7-1.9,1.9-1.9c1.1,0,1.8,0.8,1.8,1.9v14c0,4.1,2.4,6.9,7,6.9c4.6,0,7-2.8,7-6.9v-14
			c0-1.1,0.7-1.9,1.8-1.9c1.1,0,1.9,0.8,1.9,1.9v13.6c0,6.5-4,10.6-10.7,10.6C95,428.1,91,424,91,417.5z"/>
		<path class="st2" d="M134,428c-1.1,0-1.8-0.8-1.8-1.8v-7.6c0-2.7-1.4-4.6-4.3-4.6c-2.8,0-4.5,2.1-4.5,4.7v7.6c0,1-0.8,1.8-1.8,1.8
			c-1.1,0-1.8-0.8-1.8-1.8v-13.5c0-1.1,0.8-1.8,1.8-1.8c1,0,1.8,0.6,1.8,1.8v1.2c1.1-2.1,3-3.2,5.5-3.2c4.4,0,6.9,3.2,6.9,7.7v7.8
			C135.8,427.1,135.2,428,134,428z"/>
		<path class="st2" d="M151.2,414.1c-3,0-4.8,2-4.8,5.8v6.2c0,1-0.8,1.8-1.8,1.8c-1.1,0-1.8-0.8-1.8-1.8v-13.5
			c0-1.1,0.8-1.8,1.8-1.8c1,0,1.7,0.7,1.7,1.8v1.6c0.6-2.2,2.4-3.5,4.8-3.5c1,0,1.7,0.7,1.7,1.7
			C152.9,413.4,152.2,414.1,151.2,414.1z"/>
		<path class="st2" d="M172.8,419.4c0,0.6-0.3,1.2-1.4,1.2h-11.4c0.2,2.6,2,4.6,5.1,4.6c2,0,3.2-0.7,4.4-1.9
			c0.3-0.3,0.7-0.6,1.2-0.6c0.8,0,1.5,0.6,1.5,1.5c0,0.4-0.2,0.7-0.5,1c-1.4,1.7-4,2.8-6.8,2.8c-5.7,0-8.7-4-8.7-8.7
			c0-5,3.6-8.7,8.5-8.7C169.7,410.7,172.8,414.6,172.8,419.4z M164.9,413.6c-2.6,0-4.4,1.9-4.7,4.2h9.3
			C169.2,415.5,167.5,413.6,164.9,413.6z"/>
		<path class="st2" d="M180.8,428c-1.1,0-1.8-0.8-1.8-1.8v-22.3c0-1,0.7-1.8,1.8-1.8s1.8,0.8,1.8,1.8v22.3
			C182.6,427.2,181.9,428,180.8,428z"/>
		<path class="st2" d="M205.2,419.4c0,0.6-0.3,1.2-1.4,1.2h-11.4c0.2,2.6,2,4.6,5.1,4.6c2,0,3.2-0.7,4.4-1.9
			c0.3-0.3,0.7-0.6,1.2-0.6c0.8,0,1.5,0.6,1.5,1.5c0,0.4-0.2,0.7-0.5,1c-1.4,1.7-4,2.8-6.8,2.8c-5.7,0-8.7-4-8.7-8.7
			c0-5,3.6-8.7,8.5-8.7C202,410.7,205.2,414.6,205.2,419.4z M197.3,413.6c-2.6,0-4.4,1.9-4.7,4.2h9.3
			C201.5,415.5,199.8,413.6,197.3,413.6z"/>
		<path class="st2" d="M225.5,428c-1.1,0-1.8-0.8-1.8-1.8v-7.6c0-2.7-1.4-4.6-4.3-4.6c-2.8,0-4.5,2.1-4.5,4.7v7.6
			c0,1-0.8,1.8-1.8,1.8c-1.1,0-1.8-0.8-1.8-1.8v-13.5c0-1.1,0.8-1.8,1.8-1.8c1,0,1.8,0.6,1.8,1.8v1.2c1.1-2.1,3-3.2,5.5-3.2
			c4.4,0,6.9,3.2,6.9,7.7v7.8C227.3,427.1,226.6,428,225.5,428z"/>
		<path class="st2" d="M237.8,428c-1.1,0-1.8-0.8-1.8-1.8v-12h-2.9c-0.8,0-1.5-0.6-1.5-1.5s0.6-1.5,1.5-1.5h2.9v-5
			c0-1,0.7-1.8,1.8-1.8s1.8,0.8,1.8,1.8v5h3.3c0.8,0,1.5,0.6,1.5,1.5s-0.6,1.5-1.5,1.5h-3.3v12C239.6,427.2,238.9,428,237.8,428z"/>
		<path class="st2" d="M250.9,404.1c1.1,0,2.1,1,2.1,2.1s-0.9,2.1-2.1,2.1c-1.1,0-2.1-1-2.1-2.1S249.8,404.1,250.9,404.1z
			 M250.9,428c-1.1,0-1.8-0.8-1.8-1.8v-13.5c0-1,0.8-1.8,1.8-1.8s1.8,0.8,1.8,1.8v13.5C252.7,427.2,252,428,250.9,428z"/>
		<path class="st2" d="M274,428c-1.1,0-1.8-0.8-1.8-1.8v-7.6c0-2.7-1.4-4.6-4.3-4.6c-2.8,0-4.5,2.1-4.5,4.7v7.6c0,1-0.8,1.8-1.8,1.8
			c-1.1,0-1.8-0.8-1.8-1.8v-13.5c0-1.1,0.8-1.8,1.8-1.8c1,0,1.8,0.6,1.8,1.8v1.2c1.1-2.1,3-3.2,5.5-3.2c4.4,0,6.9,3.2,6.9,7.7v7.8
			C275.7,427.1,275.1,428,274,428z"/>
		<path class="st2" d="M290.2,435.1c-2.1,0-4.4-0.4-6.6-1.7c-0.6-0.4-0.9-0.9-0.9-1.4c0-1.1,1.2-2,2.5-1.2c1.7,1,3.3,1.4,4.8,1.4
			c4.3,0,5.5-2,5.5-5.4v-2.4c-1.1,1.9-3.3,3.2-5.8,3.2c-5,0-8-3.8-8-8.4c0-4.6,3-8.4,8-8.4c2.6,0,4.8,1.3,5.9,3.2v-1.2
			c0-1.1,0.7-1.8,1.7-1.8c1.1,0,1.7,0.7,1.7,1.8v13.8C299.1,431.7,296.5,435.1,290.2,435.1z M290.4,413.7c-3.1,0-5.1,2.3-5.1,5.4
			c0,3.1,2.1,5.4,5.1,5.4s5.1-2.4,5.1-5.4C295.5,416.1,293.5,413.7,290.4,413.7z"/>
		<path class="st2" d="M29.3,451.7c0.3,0.4,0.5,0.8,0.5,1.3c0,1-0.6,1.6-1.6,1.6c-0.7,0-1.2-0.4-1.6-0.9c-1.6-1.8-3.8-2.9-6.6-2.9
			c-6.2,0-9.4,4.4-9.4,9.8s3.2,9.8,9.4,9.8c2.8,0,5-1.1,6.6-2.9c0.4-0.5,0.9-0.9,1.6-0.9c1,0,1.6,0.6,1.6,1.6c0,0.5-0.2,0.9-0.5,1.3
			c-1.9,2.4-5.4,4.2-9.6,4.2c-7.9,0-12.8-6-12.8-13.1c0-7.1,4.9-13.1,12.8-13.1C23.9,447.5,27.4,449.3,29.3,451.7z"/>
		<path class="st2" d="M50,473.5c-1.1,0-1.8-0.8-1.8-1.8v-7.6c0-2.7-1.4-4.6-4.3-4.6c-2.8,0-4.5,2.1-4.5,4.7v7.6
			c0,1-0.8,1.8-1.8,1.8c-1.1,0-1.8-0.8-1.8-1.8v-22.3c0-1.1,0.8-1.8,1.8-1.8c1,0,1.8,0.6,1.8,1.8v10c1.1-2.1,3-3.2,5.5-3.2
			c4.4,0,6.9,3.2,6.9,7.7v7.8C51.8,472.7,51.1,473.5,50,473.5z"/>
		<path class="st2" d="M71.1,473.5c-1.1,0-1.7-0.8-1.7-1.8v-0.3c-1.1,1.4-2.9,2.3-5.4,2.3c-3.7,0-6.3-2.1-6.3-5.1
			c0-3.4,2.8-5.2,6.5-5.2c2.1,0,3.9,0.8,5.1,1.9v-1.6c0-3-1.3-4.4-4.6-4.4c-1.6,0-2.7,0.3-3.8,0.7c-0.3,0.1-0.8,0.3-1.2,0.3
			c-0.9,0-1.5-0.6-1.5-1.5c0-0.9,0.7-1.3,1.7-1.7c1.3-0.5,3.4-0.8,5.1-0.8c5,0,7.8,2.5,7.8,7.2v8.3
			C72.9,472.7,72.3,473.5,71.1,473.5z M65.2,465.9c-2.4,0-4,1-4,2.7c0,1.7,1.6,2.7,3.9,2.7c2.2,0,4.1-1.1,4.1-2.7
			C69.3,466.9,67.3,465.9,65.2,465.9z"/>
		<path class="st2" d="M106,473.5c-1,0-1.8-0.8-1.8-1.8v-7.6c0-2.6-1.3-4.6-4.1-4.6s-4.5,2.2-4.5,4.7v7.6c0,1-0.7,1.8-1.8,1.8
			c-1.1,0-1.8-0.8-1.8-1.8v-7.6c0-2.6-1.4-4.6-4.2-4.6c-2.9,0-4.4,2.2-4.4,4.7v7.6c0,1-0.7,1.8-1.8,1.8c-1,0-1.8-0.8-1.8-1.8v-13.5
			c0-1.1,0.7-1.8,1.8-1.8c1.2,0,1.8,0.8,1.8,1.8v1.2c1-2,3.1-3.2,5.4-3.2c2.7,0,4.8,1.4,5.8,3.4c1.5-2.3,3.6-3.4,6.3-3.4
			c4.6,0,6.8,3.2,6.8,7.6v7.9C107.7,472.7,107,473.5,106,473.5z"/>
		<path class="st2" d="M124.3,473.7c-2.5,0-4.6-1.3-5.8-3.3v8.4c0,1-0.7,1.8-1.8,1.8s-1.8-0.8-1.8-1.8v-20.6c0-1,0.6-1.8,1.7-1.8
			c1.1,0,1.7,0.8,1.7,1.8v1.3c1.1-2,3.4-3.3,6-3.3c4.4,0,7.9,3.6,7.9,8.7C132.2,470.2,128.6,473.7,124.3,473.7z M123.5,459.3
			c-3.1,0-5.1,2.7-5.1,5.7c0,3,2.1,5.7,5.1,5.7c3.1,0,5.1-2.3,5.1-5.7C128.6,461.6,126.6,459.3,123.5,459.3z"/>
		<path class="st2" d="M140.1,449.7c1.1,0,2.1,1,2.1,2.1s-0.9,2.1-2.1,2.1c-1.1,0-2.1-1-2.1-2.1S139,449.7,140.1,449.7z
			 M140.1,473.5c-1.1,0-1.8-0.8-1.8-1.8v-13.5c0-1,0.8-1.8,1.8-1.8s1.8,0.8,1.8,1.8v13.5C141.9,472.7,141.2,473.5,140.1,473.5z"/>
		<path class="st2" d="M156.7,473.7c-5.3,0-8.7-3.9-8.7-8.7c0-4.8,3.4-8.7,8.7-8.7c5.3,0,8.7,3.9,8.7,8.7
			C165.4,469.8,162,473.7,156.7,473.7z M156.7,459.3c-3.3,0-5.1,2.6-5.1,5.7c0,3.1,1.8,5.7,5.1,5.7c3.3,0,5.1-2.6,5.1-5.7
			C161.9,461.9,160.1,459.3,156.7,459.3z"/>
		<path class="st2" d="M185.8,473.5c-1.1,0-1.8-0.8-1.8-1.8v-7.6c0-2.7-1.4-4.6-4.3-4.6c-2.8,0-4.5,2.1-4.5,4.7v7.6
			c0,1-0.8,1.8-1.8,1.8c-1.1,0-1.8-0.8-1.8-1.8v-13.5c0-1.1,0.8-1.8,1.8-1.8c1,0,1.8,0.6,1.8,1.8v1.2c1.1-2.1,3-3.2,5.5-3.2
			c4.4,0,6.9,3.2,6.9,7.7v7.8C187.5,472.7,186.9,473.5,185.8,473.5z"/>
		<path class="st2" d="M200.5,473.7c-2.4,0-4.5-0.8-6-1.9c-0.5-0.4-0.8-1-0.8-1.5c0-0.8,0.6-1.3,1.4-1.3c0.6,0,1,0.2,1.4,0.5
			c1,0.8,2.5,1.5,4.3,1.5c2.1,0,3.2-0.8,3.2-1.9c0-1.3-1.1-1.8-3.7-2.5c-4.7-1.3-6.4-2.8-6.4-5.6c0-2.8,2.6-4.7,6.7-4.7
			c1.6,0,3.3,0.4,4.7,1.1c1,0.5,1.7,1.1,1.7,1.9c0,0.7-0.4,1.3-1.4,1.3c-0.5,0-1-0.2-1.6-0.5c-1.1-0.6-2.2-0.9-3.6-0.9
			c-1.9,0-3.2,0.5-3.2,1.8c0,1.3,1.1,1.7,3.9,2.5c4.1,1.2,6.2,2.3,6.2,5.4C207.4,471.6,205.1,473.7,200.5,473.7z"/>
		<path class="st2" d="M234.3,473.7c-5.3,0-8.7-3.9-8.7-8.7c0-4.8,3.4-8.7,8.7-8.7c5.3,0,8.7,3.9,8.7,8.7
			C243,469.8,239.6,473.7,234.3,473.7z M234.3,459.3c-3.3,0-5.1,2.6-5.1,5.7c0,3.1,1.8,5.7,5.1,5.7c3.3,0,5.1-2.6,5.1-5.7
			C239.4,461.9,237.7,459.3,234.3,459.3z"/>
		<path class="st2" d="M258.1,450.7H257c-1.9,0-3,0.7-3,3.2v2.8h3.8c0.8,0,1.5,0.6,1.5,1.5s-0.6,1.5-1.5,1.5H254v12
			c0,1-0.7,1.8-1.8,1.8s-1.8-0.8-1.8-1.8v-12h-2.2c-0.8,0-1.5-0.6-1.5-1.5s0.6-1.5,1.5-1.5h2.2v-2.5c0-4,1.9-6.5,6.3-6.5h1.3
			c0.8,0,1.5,0.6,1.5,1.5S258.9,450.7,258.1,450.7z"/>
		<path class="st2" d="M19.5,518.8h-9.3c-1,0-1.8-0.8-1.8-1.9v-21.6c0-1,0.8-1.8,1.8-1.8h8.8c4.7,0,7.7,2.5,7.7,6.3
			c0,2.5-1.5,4.4-3.9,5.5c3.1,0.6,5.4,2.5,5.4,6.4C28.4,515.4,25.4,518.8,19.5,518.8z M19.2,496.8h-7.1v7.1h7.2
			c2.6,0,3.9-1.7,3.9-3.6C23.2,497.9,21.6,496.8,19.2,496.8z M12.1,507.1v8.4h7.7c3.1,0,4.9-1.7,4.9-4.3c0-2.6-1.9-4.2-4.9-4.2H12.1
			z"/>
		<path class="st2" d="M43.3,505.3c-3,0-4.8,2-4.8,5.8v6.2c0,1-0.8,1.8-1.8,1.8c-1.1,0-1.8-0.8-1.8-1.8v-13.5c0-1.1,0.8-1.8,1.8-1.8
			c1,0,1.7,0.7,1.7,1.8v1.6c0.6-2.2,2.4-3.5,4.8-3.5c1,0,1.7,0.7,1.7,1.7C45,504.6,44.3,505.3,43.3,505.3z"/>
		<path class="st2" d="M62.7,519.1c-1.1,0-1.7-0.8-1.7-1.8V517c-1.1,1.4-2.9,2.3-5.4,2.3c-3.7,0-6.3-2.1-6.3-5.1
			c0-3.4,2.8-5.2,6.5-5.2c2.1,0,3.9,0.8,5.1,1.9v-1.6c0-3-1.3-4.4-4.6-4.4c-1.6,0-2.7,0.3-3.8,0.7c-0.3,0.1-0.8,0.3-1.2,0.3
			c-0.9,0-1.5-0.6-1.5-1.5c0-0.9,0.7-1.3,1.7-1.7c1.3-0.5,3.4-0.8,5.1-0.8c5,0,7.8,2.5,7.8,7.2v8.3
			C64.4,518.3,63.8,519.1,62.7,519.1z M56.8,511.5c-2.4,0-4,1-4,2.7c0,1.7,1.6,2.7,3.9,2.7c2.2,0,4.1-1.1,4.1-2.7
			C60.8,512.4,58.8,511.5,56.8,511.5z"/>
		<path class="st2" d="M85.5,519.1c-1.1,0-1.8-0.8-1.8-1.8v-7.6c0-2.7-1.4-4.6-4.3-4.6c-2.8,0-4.5,2.1-4.5,4.7v7.6
			c0,1-0.8,1.8-1.8,1.8c-1.1,0-1.8-0.8-1.8-1.8v-13.5c0-1.1,0.8-1.8,1.8-1.8c1,0,1.8,0.6,1.8,1.8v1.2c1.1-2.1,3-3.2,5.5-3.2
			c4.4,0,6.9,3.2,6.9,7.7v7.8C87.3,518.3,86.7,519.1,85.5,519.1z"/>
		<path class="st2" d="M101.2,501.9c2.5,0,4.6,1.3,5.8,3.3V495c0-1,0.7-1.8,1.8-1.8s1.8,0.8,1.8,1.8v22.3c0,1-0.6,1.8-1.7,1.8
			c-1.1,0-1.7-0.8-1.7-1.8V516c-1.1,2-3.4,3.3-6,3.3c-4.4,0-7.9-3.6-7.9-8.7C93.3,505.3,96.9,501.9,101.2,501.9z M102,516.3
			c3.1,0,5.1-2.7,5.1-5.7c0-3-2.1-5.7-5.1-5.7s-5.1,2.3-5.1,5.7C96.9,514,98.9,516.3,102,516.3z"/>
		<path class="st2" d="M124,519.3c-2.4,0-4.5-0.8-6-1.9c-0.5-0.4-0.8-1-0.8-1.5c0-0.8,0.6-1.3,1.4-1.3c0.6,0,1,0.2,1.4,0.5
			c1,0.8,2.5,1.5,4.3,1.5c2.1,0,3.2-0.8,3.2-1.9c0-1.3-1.1-1.8-3.7-2.5c-4.7-1.3-6.4-2.8-6.4-5.6c0-2.8,2.6-4.7,6.7-4.7
			c1.6,0,3.3,0.4,4.7,1.1c1,0.5,1.7,1.1,1.7,1.9c0,0.7-0.4,1.3-1.4,1.3c-0.5,0-1-0.2-1.6-0.5c-1.1-0.6-2.2-0.9-3.6-0.9
			c-1.9,0-3.2,0.5-3.2,1.8c0,1.3,1.1,1.7,3.9,2.5c4.1,1.2,6.2,2.3,6.2,5.4C130.9,517.2,128.5,519.3,124,519.3z"/>
		<path class="st2" d="M139.1,514.6c1.3,0,2.3,1,2.3,2.3s-1,2.3-2.3,2.3c-1.3,0-2.3-1-2.3-2.3S137.8,514.6,139.1,514.6z"/>
		<path class="st2" d="M152,493.6h-2.9v8.6c0,0.6-0.5,1.1-1.1,1.1c-0.6,0-1-0.5-1-1.1v-8.6h-3c-0.6,0-1-0.4-1-1c0-0.6,0.4-1,1-1h8
			c0.6,0,1,0.4,1,1C153,493.1,152.6,493.6,152,493.6z"/>
		<path class="st2" d="M165.3,503.2c-0.6,0-1-0.4-1-1v-5.7l-2.9,6.2c-0.2,0.4-0.5,0.6-0.9,0.6c-0.4,0-0.7-0.2-0.9-0.6l-3-6.2v5.7
			c0,0.5-0.4,1-1,1c-0.5,0-1-0.5-1-1v-9.8c0-0.5,0.4-1,1-1c0.5,0,0.7,0.3,0.9,0.6l3.9,8.1l3.9-8.1c0.2-0.4,0.5-0.6,0.9-0.6
			c0.6,0,1,0.4,1,1v9.8C166.3,502.8,165.9,503.2,165.3,503.2z"/>
	</g>
</g>
<g>
</g>
<g>
</g>
<g>
</g>
<g>
</g>
<g>
</g>
<g>
</g>
</svg>
